<svg xmlns="http://www.w3.org/2000/svg" xmlns:xlink="http://www.w3.org/1999/xlink" id="Layer_1" x="0" y="0" version="1.1" viewBox="0 0 512 512" xml:space="preserve" style="enable-background:new 0 0 512 512"><circle style="fill:#4a62a8" cx="256" cy="256" r="256"/><path style="fill:#374f8c" d="M382.217,206.972l-111.787,46.309l-48.837-51.807l-92.457,102.912L326.82,502.069	c84.442-24.259,150.988-90.803,175.247-175.245L382.217,206.972z"/><path style="fill:#fff" d="M248.13,256c0,38.288-31.042,69.33-69.33,69.33c-38.293,0-69.332-31.042-69.332-69.33	c0-38.293,31.039-69.332,69.332-69.332C217.086,186.67,248.13,217.709,248.13,256L248.13,256z"/><path style="fill:#ca237b" d="M402.532,256c0,38.288-31.041,69.33-69.332,69.33s-69.332-31.042-69.332-69.33	c0-38.293,31.041-69.332,69.332-69.332S402.532,217.709,402.532,256L402.532,256z"/></svg>