<svg xmlns="http://www.w3.org/2000/svg" xmlns:svg="http://www.w3.org/2000/svg" id="svg895" width="650" height="405.632" version="1.1" viewBox="0 0 650 405.632"><metadata id="metadata899"/><defs id="defs879"><style id="style877" type="text/css">.c{fill:#ff5f00}.d{fill:#eb001b}.e{fill:#f79e1b}</style></defs><title id="title881">Asset 1</title><rect style="display:inline;fill:#ff5f00;stroke-width:5.49381161" id="rect887" width="190.416" height="311.005" x="229.833" y="47.298" class="c"/><path style="fill:#eb001b;stroke-width:5.49381161" id="path889" d="m 249.44554,202.82756 a 197.44759,197.44759 0 0 1 75.53991,-155.474867 197.77722,197.77722 0 1 0 0,311.004677 197.44759,197.44759 0 0 1 -75.53991,-155.52981 z" class="d"/><path style="fill:#f79e1b;stroke-width:5.49381161" id="path891" d="m 626.1013,325.3945 v -6.37282 h 2.7469 v -1.31852 h -6.53764 v 1.31852 h 2.5821 v 6.37282 z m 12.6907,0 v -7.69134 h -1.97778 l -2.3074,5.49381 -2.3074,-5.49381 h -1.97777 v 7.69134 h 1.42839 v -5.82344 l 2.14259,4.99937 h 1.48333 l 2.14258,-4.99937 v 5.82344 z" class="e"/><path style="fill:#f79e1b;stroke-width:5.49381161" id="path893" d="m 645,202.82756 a 197.77722,197.77722 0 0 1 -320.01455,155.47487 197.77722,197.77722 0 0 0 0,-311.004675 A 197.77722,197.77722 0 0 1 645,202.77262 Z" class="e"/></svg>